<svg xmlns="http://www.w3.org/2000/svg" xmlns:xlink="http://www.w3.org/1999/xlink" xmlns:lucid="lucid" width="161" height="361"><g transform="translate(-359.4988990149157 -59.5)" lucid:page-tab-id="0_0"><path d="M500 60c11.05 0 20 8.95 20 20s-8.95 20-20 20H380c-11.05 0-20-8.95-20-20s8.95-20 20-20z" stroke="#54c45e" fill-opacity="0"/><use xlink:href="#a" transform="matrix(1,0,0,1,365,65) translate(58.251953125 20.31684027777778)"/><path d="M368.6 147.73a10.4 10.4 0 0 1 10.07-7.73H512a6.15 6.15 0 0 1 5.94 7.73l-6.55 24.54a10.4 10.4 0 0 1-10.07 7.73H368a6.15 6.15 0 0 1-5.94-7.73z" stroke="#54c45e" fill-opacity="0"/><use xlink:href="#b" transform="matrix(1,0,0,1,372,152) translate(22.240740740740733 12.444444444444446)"/><use xlink:href="#c" transform="matrix(1,0,0,1,372,152) translate(61.129629629629626 12.444444444444446)"/><path d="M360 228a8 8 0 0 1 8-8h144a8 8 0 0 1 8 8v24a8 8 0 0 1-8 8H368a8 8 0 0 1-8-8z" stroke="#54c45e" fill-opacity="0"/><use xlink:href="#d" transform="matrix(1,0,0,1,365,225) translate(1.5925925925925952 17.666666666666668)"/><use xlink:href="#e" transform="matrix(1,0,0,1,365,225) translate(60.74074074074074 17.666666666666668)"/><use xlink:href="#f" transform="matrix(1,0,0,1,365,225) translate(105.14814814814815 17.666666666666668)"/><use xlink:href="#g" transform="matrix(1,0,0,1,365,225) translate(116.62962962962963 17.666666666666668)"/><use xlink:href="#h" transform="matrix(1,0,0,1,365,225) translate(129.92592592592592 17.666666666666668)"/><use xlink:href="#i" transform="matrix(1,0,0,1,365,225) translate(138.81481481481484 17.666666666666668)"/><path d="M440 101v22.12" stroke="#54c45e" fill="none"/><path d="M440.48 101h-.96v-.5h.96z" stroke="#54c45e" stroke-width=".05" fill="#54c45e"/><path d="M440 137.88l-4.63-14.26h9.26z" stroke="#54c45e" fill="#54c45e"/><path d="M440 181v22.12" stroke="#54c45e" fill="none"/><path d="M440.48 181h-.96v-.5h.96z" stroke="#54c45e" stroke-width=".05" fill="#54c45e"/><path d="M440 217.88l-4.63-14.26h9.26z" stroke="#54c45e" fill="#54c45e"/><path d="M368.6 307.73a10.4 10.4 0 0 1 10.07-7.73H512a6.15 6.15 0 0 1 5.94 7.73l-6.55 24.54a10.4 10.4 0 0 1-10.07 7.73H368a6.15 6.15 0 0 1-5.94-7.73z" stroke="#54c45e" fill-opacity="0"/><use xlink:href="#j" transform="matrix(1,0,0,1,372,312) translate(18.76234567901235 12.444444444444446)"/><use xlink:href="#k" transform="matrix(1,0,0,1,372,312) translate(69.75 12.444444444444446)"/><path d="M500 380c11.05 0 20 8.95 20 20s-8.95 20-20 20H380c-11.05 0-20-8.95-20-20s8.95-20 20-20z" stroke="#54c45e" fill-opacity="0"/><use xlink:href="#l" transform="matrix(1,0,0,1,365,385) translate(61.901584201388886 20.31684027777778)"/><path d="M440 261v22.12" stroke="#54c45e" fill="none"/><path d="M440.48 261h-.96v-.5h.96z" stroke="#54c45e" stroke-width=".05" fill="#54c45e"/><path d="M440 297.88l-4.63-14.26h9.26z" stroke="#54c45e" fill="#54c45e"/><path d="M440 341v22.12" stroke="#54c45e" fill="none"/><path d="M440.48 341h-.96v-.5h.96z" stroke="#54c45e" stroke-width=".05" fill="#54c45e"/><path d="M440 377.88l-4.63-14.26h9.26z" stroke="#54c45e" fill="#54c45e"/><defs><path fill="#fff" d="M631-137c179 0 314-70 314-231 0-71-25-127-75-166s-141-77-272-115c-165-47-285-106-360-175s-112-154-112-255c0-245 231-397 495-397 206 0 369 89 449 218 43 68 65 142 65 223H942c0-184-129-283-321-283-172 0-299 76-301 236 0 59 26 109 76 150s135 78 256 113c205 59 345 116 436 256 35 53 50 119 50 193-2 256-231 398-507 390C333 12 90-129 80-422h193c0 187 160 285 358 285" id="m"/><path fill="#fff" d="M456 20C285 20 205-92 206-268v-671H9v-143h197v-262h185v262h202v143H391v671c-9 125 92 149 207 118V0c-49 13-96 20-142 20" id="n"/><path fill="#fff" d="M561-1102c238-4 403 126 403 351v498c0 99 13 178 38 237V0H808c-11-21-19-59-26-114C696-25 593 20 474 20c-199 0-368-130-365-320 4-251 214-359 490-356h180v-85c-1-135-86-212-229-212-115 0-232 67-233 171H131c20-205 206-316 430-320zM294-326c0 117 90 185 207 185 122 0 239-75 278-162v-222H634c-227 0-340 66-340 199" id="o"/><path fill="#fff" d="M663-916c-163-27-288 18-338 148V0H140v-1082h180l3 125c61-97 147-145 258-145 36 0 63 5 82 14v172" id="p"/><g id="a"><use transform="matrix(0.007595486111111112,0,0,0.007595486111111112,0,0)" xlink:href="#m"/><use transform="matrix(0.007595486111111112,0,0,0.007595486111111112,9.228515625000002,0)" xlink:href="#n"/><use transform="matrix(0.007595486111111112,0,0,0.007595486111111112,14.309895833333336,0)" xlink:href="#o"/><use transform="matrix(0.007595486111111112,0,0,0.007595486111111112,22.771267361111114,0)" xlink:href="#p"/><use transform="matrix(0.007595486111111112,0,0,0.007595486111111112,28.41471354166667,0)" xlink:href="#n"/></g><path fill="#fff" d="M33 0v-248h34V0H33" id="q"/><path fill="#fff" d="M117-194c89-4 53 116 60 194h-32v-121c0-31-8-49-39-48C34-167 62-67 57 0H25l-1-190h30c1 10-1 24 2 32 11-22 29-35 61-36" id="r"/><path fill="#fff" d="M115-194c55 1 70 41 70 98S169 2 115 4C84 4 66-9 55-30l1 105H24l-1-265h31l2 30c10-21 28-34 59-34zm-8 174c40 0 45-34 45-75s-6-73-45-74c-42 0-51 32-51 76 0 43 10 73 51 73" id="s"/><path fill="#fff" d="M84 4C-5 8 30-112 23-190h32v120c0 31 7 50 39 49 72-2 45-101 50-169h31l1 190h-30c-1-10 1-25-2-33-11 22-28 36-60 37" id="t"/><path fill="#fff" d="M59-47c-2 24 18 29 38 22v24C64 9 27 4 27-40v-127H5v-23h24l9-43h21v43h35v23H59v120" id="u"/><g id="b"><use transform="matrix(0.04320987654320988,0,0,0.04320987654320988,0,0)" xlink:href="#q"/><use transform="matrix(0.04320987654320988,0,0,0.04320987654320988,4.320987654320988,0)" xlink:href="#r"/><use transform="matrix(0.04320987654320988,0,0,0.04320987654320988,12.962962962962964,0)" xlink:href="#s"/><use transform="matrix(0.04320987654320988,0,0,0.04320987654320988,21.604938271604944,0)" xlink:href="#t"/><use transform="matrix(0.04320987654320988,0,0,0.04320987654320988,30.24691358024692,0)" xlink:href="#u"/></g><path fill="#fff" d="M210-169c-67 3-38 105-44 169h-31v-121c0-29-5-50-35-48C34-165 62-65 56 0H25l-1-190h30c1 10-1 24 2 32 10-44 99-50 107 0 11-21 27-35 58-36 85-2 47 119 55 194h-31v-121c0-29-5-49-35-48" id="v"/><path fill="#fff" d="M115-194c53 0 69 39 70 98 0 66-23 100-70 100C84 3 66-7 56-30L54 0H23l1-261h32v101c10-23 28-34 59-34zm-8 174c40 0 45-34 45-75 0-40-5-75-45-74-42 0-51 32-51 76 0 43 10 73 51 73" id="w"/><path fill="#fff" d="M100-194c63 0 86 42 84 106H49c0 40 14 67 53 68 26 1 43-12 49-29l28 8c-11 28-37 45-77 45C44 4 14-33 15-96c1-61 26-98 85-98zm52 81c6-60-76-77-97-28-3 7-6 17-6 28h103" id="x"/><path fill="#fff" d="M114-163C36-179 61-72 57 0H25l-1-190h30c1 12-1 29 2 39 6-27 23-49 58-41v29" id="y"/><g id="c"><use transform="matrix(0.04320987654320988,0,0,0.04320987654320988,0,0)" xlink:href="#r"/><use transform="matrix(0.04320987654320988,0,0,0.04320987654320988,8.641975308641976,0)" xlink:href="#t"/><use transform="matrix(0.04320987654320988,0,0,0.04320987654320988,17.283950617283953,0)" xlink:href="#v"/><use transform="matrix(0.04320987654320988,0,0,0.04320987654320988,30.203703703703713,0)" xlink:href="#w"/><use transform="matrix(0.04320987654320988,0,0,0.04320987654320988,38.845679012345684,0)" xlink:href="#x"/><use transform="matrix(0.04320987654320988,0,0,0.04320987654320988,47.48765432098766,0)" xlink:href="#y"/></g><path fill="#fff" d="M212-179c-10-28-35-45-73-45-59 0-87 40-87 99 0 60 29 101 89 101 43 0 62-24 78-52l27 14C228-24 195 4 139 4 59 4 22-46 18-125c-6-104 99-153 187-111 19 9 31 26 39 46" id="z"/><path fill="#fff" d="M141-36C126-15 110 5 73 4 37 3 15-17 15-53c-1-64 63-63 125-63 3-35-9-54-41-54-24 1-41 7-42 31l-33-3c5-37 33-52 76-52 45 0 72 20 72 64v82c-1 20 7 32 28 27v20c-31 9-61-2-59-35zM48-53c0 20 12 33 32 33 41-3 63-29 60-74-43 2-92-5-92 41" id="A"/><path fill="#fff" d="M24 0v-261h32V0H24" id="B"/><path fill="#fff" d="M96-169c-40 0-48 33-48 73s9 75 48 75c24 0 41-14 43-38l32 2c-6 37-31 61-74 61-59 0-76-41-82-99-10-93 101-131 147-64 4 7 5 14 7 22l-32 3c-4-21-16-35-41-35" id="C"/><g id="d"><use transform="matrix(0.03703703703703704,0,0,0.03703703703703704,0,0)" xlink:href="#z"/><use transform="matrix(0.03703703703703704,0,0,0.03703703703703704,9.592592592592593,0)" xlink:href="#A"/><use transform="matrix(0.03703703703703704,0,0,0.03703703703703704,17,0)" xlink:href="#B"/><use transform="matrix(0.03703703703703704,0,0,0.03703703703703704,19.925925925925927,0)" xlink:href="#C"/><use transform="matrix(0.03703703703703704,0,0,0.03703703703703704,26.592592592592595,0)" xlink:href="#t"/><use transform="matrix(0.03703703703703704,0,0,0.03703703703703704,34,0)" xlink:href="#B"/><use transform="matrix(0.03703703703703704,0,0,0.03703703703703704,36.925925925925924,0)" xlink:href="#A"/><use transform="matrix(0.03703703703703704,0,0,0.03703703703703704,44.33333333333333,0)" xlink:href="#u"/><use transform="matrix(0.03703703703703704,0,0,0.03703703703703704,48.03703703703704,0)" xlink:href="#x"/></g><path fill="#fff" d="M135-143c-3-34-86-38-87 0 15 53 115 12 119 90S17 21 10-45l28-5c4 36 97 45 98 0-10-56-113-15-118-90-4-57 82-63 122-42 12 7 21 19 24 35" id="D"/><path fill="#fff" d="M145-31C134-9 116 4 85 4 32 4 16-35 15-94c0-59 17-99 70-100 32-1 48 14 60 33 0-11-1-24 2-32h30l-1 268h-32zM93-21c41 0 51-33 51-76s-8-73-50-73c-40 0-46 35-46 75s5 74 45 74" id="E"/><g id="e"><use transform="matrix(0.03703703703703704,0,0,0.03703703703703704,0,0)" xlink:href="#D"/><use transform="matrix(0.03703703703703704,0,0,0.03703703703703704,6.666666666666668,0)" xlink:href="#E"/><use transform="matrix(0.03703703703703704,0,0,0.03703703703703704,14.074074074074076,0)" xlink:href="#t"/><use transform="matrix(0.03703703703703704,0,0,0.03703703703703704,21.481481481481485,0)" xlink:href="#A"/><use transform="matrix(0.03703703703703704,0,0,0.03703703703703704,28.888888888888893,0)" xlink:href="#y"/><use transform="matrix(0.03703703703703704,0,0,0.03703703703703704,33.296296296296305,0)" xlink:href="#x"/></g><path fill="#fff" d="M18-150v-26h174v26H18zm0 90v-26h174v26H18" id="F"/><use transform="matrix(0.03703703703703704,0,0,0.03703703703703704,0,0)" xlink:href="#F" id="f"/><path fill="#fff" d="M190 0L58-211 59 0H30v-248h39L202-35l-2-213h31V0h-41" id="G"/><use transform="matrix(0.03703703703703704,0,0,0.03703703703703704,0,0)" xlink:href="#G" id="g"/><path fill="#fff" d="M80-196l47-18 7 23-49 13 32 44-20 13-27-46-27 45-21-12 33-44-49-13 8-23 47 19-2-53h23" id="H"/><use transform="matrix(0.03703703703703704,0,0,0.03703703703703704,0,0)" xlink:href="#H" id="h"/><use transform="matrix(0.03703703703703704,0,0,0.03703703703703704,0,0)" xlink:href="#G" id="i"/><path fill="#fff" d="M140-251c81 0 123 46 123 126C263-46 219 4 140 4 59 4 17-45 17-125s42-126 123-126zm0 227c63 0 89-41 89-101s-29-99-89-99c-61 0-89 39-89 99S79-25 140-24" id="I"/><g id="j"><use transform="matrix(0.04320987654320988,0,0,0.04320987654320988,0,0)" xlink:href="#I"/><use transform="matrix(0.04320987654320988,0,0,0.04320987654320988,12.098765432098766,0)" xlink:href="#t"/><use transform="matrix(0.04320987654320988,0,0,0.04320987654320988,20.74074074074074,0)" xlink:href="#u"/><use transform="matrix(0.04320987654320988,0,0,0.04320987654320988,25.061728395061728,0)" xlink:href="#s"/><use transform="matrix(0.04320987654320988,0,0,0.04320987654320988,33.7037037037037,0)" xlink:href="#t"/><use transform="matrix(0.04320987654320988,0,0,0.04320987654320988,42.34567901234568,0)" xlink:href="#u"/></g><g id="k"><use transform="matrix(0.04320987654320988,0,0,0.04320987654320988,0,0)" xlink:href="#D"/><use transform="matrix(0.04320987654320988,0,0,0.04320987654320988,7.777777777777779,0)" xlink:href="#E"/><use transform="matrix(0.04320987654320988,0,0,0.04320987654320988,16.419753086419753,0)" xlink:href="#t"/><use transform="matrix(0.04320987654320988,0,0,0.04320987654320988,25.061728395061728,0)" xlink:href="#A"/><use transform="matrix(0.04320987654320988,0,0,0.04320987654320988,33.7037037037037,0)" xlink:href="#y"/><use transform="matrix(0.04320987654320988,0,0,0.04320987654320988,38.84567901234568,0)" xlink:href="#x"/></g><path fill="#fff" d="M992-673H361v516h733V0H169v-1456h915v158H361v468h631v157" id="J"/><path fill="#fff" d="M589-945c-131 0-219 81-264 174V0H140v-1082h175l6 136c83-104 191-156 324-156 229 0 346 129 346 387V0H806v-716c-2-153-65-229-217-229" id="K"/><path fill="#fff" d="M520 20C244 20 95-247 95-550c0-298 151-550 427-552 127 0 227 43 301 130v-564h185V0H838l-9-116C755-25 652 20 520 20zm48-965c-210 0-288 177-288 416 0 218 87 392 286 392 117 0 203-53 257-158v-497c-55-102-140-153-255-153" id="L"/><g id="l"><use transform="matrix(0.007595486111111112,0,0,0.007595486111111112,0,0)" xlink:href="#J"/><use transform="matrix(0.007595486111111112,0,0,0.007595486111111112,8.841145833333334,0)" xlink:href="#K"/><use transform="matrix(0.007595486111111112,0,0,0.007595486111111112,17.424045138888893,0)" xlink:href="#L"/></g></defs></g></svg>