<svg xmlns="http://www.w3.org/2000/svg" xmlns:xlink="http://www.w3.org/1999/xlink" xmlns:lucid="lucid" width="361" height="461"><g transform="translate(-259.4999999693042 -59.5)" lucid:page-tab-id="0_0"><path d="M500 60c11.05 0 20 8.95 20 20s-8.95 20-20 20H380c-11.05 0-20-8.95-20-20s8.95-20 20-20z" stroke="#54c45e" fill-opacity="0"/><use xlink:href="#a" transform="matrix(1,0,0,1,365,65) translate(58.251953125 20.31684027777778)"/><path d="M360 148a8 8 0 0 1 8-8h144a8 8 0 0 1 8 8v24a8 8 0 0 1-8 8H368a8 8 0 0 1-8-8z" stroke="#54c45e" fill-opacity="0"/><use xlink:href="#b" transform="matrix(1,0,0,1,372,152) translate(24.379629629629626 12.444444444444446)"/><use xlink:href="#c" transform="matrix(1,0,0,1,372,152) translate(63.26851851851852 12.444444444444446)"/><path d="M433.7 224.9a10.3 10.3 0 0 1 12.62 0l77.36 60.2a6.22 6.22 0 0 1 0 9.8l-77.36 60.2a10.3 10.3 0 0 1-12.63 0l-77.38-60.2a6.22 6.22 0 0 1 0-9.8z" stroke="#54c45e" fill-opacity="0"/><use xlink:href="#d" transform="matrix(1,0,0,1,355,225) translate(32.9753086419753 68.11111111111111)"/><use xlink:href="#e" transform="matrix(1,0,0,1,355,225) translate(49.395061728395056 68.11111111111111)"/><use xlink:href="#f" transform="matrix(1,0,0,1,355,225) translate(106.34567901234568 68.11111111111111)"/><use xlink:href="#g" transform="matrix(1,0,0,1,355,225) translate(119.74074074074075 68.11111111111111)"/><path d="M260 388a8 8 0 0 1 8-8h144a8 8 0 0 1 8 8v64a8 8 0 0 1-8 8H268a8 8 0 0 1-8-8z" stroke="#54c45e" fill-opacity="0"/><use xlink:href="#h" transform="matrix(1,0,0,1,272,392) translate(17.228395061728392 31.11111111111111)"/><use xlink:href="#i" transform="matrix(1,0,0,1,272,392) translate(53.43827160493827 31.11111111111111)"/><path d="M460 388a8 8 0 0 1 8-8h144a8 8 0 0 1 8 8v64a8 8 0 0 1-8 8H468a8 8 0 0 1-8-8z" stroke="#54c45e" fill-opacity="0"/><use xlink:href="#h" transform="matrix(1,0,0,1,472,392) translate(13.771604938271594 31.11111111111111)"/><use xlink:href="#j" transform="matrix(1,0,0,1,472,392) translate(49.981481481481474 31.11111111111111)"/><path d="M500 480c11.05 0 20 8.95 20 20s-8.95 20-20 20H380c-11.05 0-20-8.95-20-20s8.95-20 20-20z" stroke="#54c45e" fill-opacity="0"/><use xlink:href="#k" transform="matrix(1,0,0,1,365,485) translate(61.901584201388886 20.31684027777778)"/><path d="M440 101v22.12" stroke="#54c45e" fill="none"/><path d="M440.48 101h-.96v-.5h.96z" stroke="#54c45e" stroke-width=".05" fill="#54c45e"/><path d="M440 137.88l-4.63-14.26h9.26z" stroke="#54c45e" fill="#54c45e"/><path d="M440 181v24.86" stroke="#54c45e" fill="none"/><path d="M440.48 181h-.96v-.5h.96z" stroke="#54c45e" stroke-width=".05" fill="#54c45e"/><path d="M440 220.63l-4.63-14.27h9.26z" stroke="#54c45e" fill="#54c45e"/><path d="M306.8 361h-1.94v-40.7h1.95zm45.6-70.02H317.9l-1.77.13-1.67.42-1.6.66-1.47.9-1.32 1.13-1.12 1.32-.9 1.48-.66 1.6-.4 1.68-.1 1.35h-1.97l.12-1.66.48-1.98.77-1.9 1.07-1.73 1.32-1.55 1.55-1.32 1.75-1.06 1.88-.78 1.98-.48 2-.16h34.6z" stroke="#54c45e" stroke-width=".05" fill="#54c45e"/><path d="M353.4 290l.1.98h-1.12v-1.96h1.12z" fill="#54c45e"/><path stroke="#54c45e" stroke-width=".05" fill="#54c45e"/><path d="M305.84 376.26L301.2 362h9.27z" fill="#54c45e"/><path d="M305.84 379.42l-5.98-18.4h11.95zm-3.3-16.45l3.3 10.14 3.3-10.13z" stroke="#54c45e" stroke-width=".05" fill="#54c45e"/><use xlink:href="#l" transform="matrix(1,0,0,1,293.15534788840637,301.6301093358946) translate(0.005000000000000782 12.444444444444446)"/><path d="M577.57 361h-1.95v-41.92h1.95zm-10.95-71.82l1.98.48 1.88.78 1.74 1.06 1.55 1.32 1.32 1.55 1.06 1.74.78 1.9.47 1.97.05.44-1.96.02-.02-.14-.4-1.7-.67-1.58-.9-1.48-1.1-1.3-1.33-1.14-1.47-.9-1.6-.66-1.68-.4-1.77-.14H527.6v-1.96h37.03z" stroke="#fe7070" stroke-width=".05" fill="#fe7070"/><path d="M527.6 290.98h-1.1l.1-.98-.1-.98h1.12z" fill="#fe7070"/><path stroke="#fe7070" stroke-width=".05" fill="#fe7070"/><path d="M576.6 376.26L571.95 362h9.27z" fill="#fe7070"/><path d="M576.6 379.42l-5.98-18.4h11.95zm-3.3-16.45l3.3 10.14 3.3-10.13z" stroke="#fe7070" stroke-width=".05" fill="#fe7070"/><use xlink:href="#m" transform="matrix(1,0,0,1,566.6768720449675,300.4145920850708) translate(0.005000000000000782 12.444444444444446)"/><path d="M340 461v35.88a3.12 3.12 0 0 0 3.12 3.12" stroke="#54c45e" fill="none"/><path d="M340.48 461h-.96v-.5h.96z" stroke="#54c45e" stroke-width=".05" fill="#54c45e"/><path d="M357.88 500l-14.26 4.63v-9.26z" stroke="#54c45e" fill="#54c45e"/><path d="M540 461v35.88a3.12 3.12 0 0 1-3.12 3.12" stroke="#54c45e" fill="none"/><path d="M540.48 461h-.96v-.5h.96z" stroke="#54c45e" stroke-width=".05" fill="#54c45e"/><path d="M522.12 500l14.26-4.63v9.26z" stroke="#54c45e" fill="#54c45e"/><defs><path fill="#fff" d="M631-137c179 0 314-70 314-231 0-71-25-127-75-166s-141-77-272-115c-165-47-285-106-360-175s-112-154-112-255c0-245 231-397 495-397 206 0 369 89 449 218 43 68 65 142 65 223H942c0-184-129-283-321-283-172 0-299 76-301 236 0 59 26 109 76 150s135 78 256 113c205 59 345 116 436 256 35 53 50 119 50 193-2 256-231 398-507 390C333 12 90-129 80-422h193c0 187 160 285 358 285" id="n"/><path fill="#fff" d="M456 20C285 20 205-92 206-268v-671H9v-143h197v-262h185v262h202v143H391v671c-9 125 92 149 207 118V0c-49 13-96 20-142 20" id="o"/><path fill="#fff" d="M561-1102c238-4 403 126 403 351v498c0 99 13 178 38 237V0H808c-11-21-19-59-26-114C696-25 593 20 474 20c-199 0-368-130-365-320 4-251 214-359 490-356h180v-85c-1-135-86-212-229-212-115 0-232 67-233 171H131c20-205 206-316 430-320zM294-326c0 117 90 185 207 185 122 0 239-75 278-162v-222H634c-227 0-340 66-340 199" id="p"/><path fill="#fff" d="M663-916c-163-27-288 18-338 148V0H140v-1082h180l3 125c61-97 147-145 258-145 36 0 63 5 82 14v172" id="q"/><g id="a"><use transform="matrix(0.007595486111111112,0,0,0.007595486111111112,0,0)" xlink:href="#n"/><use transform="matrix(0.007595486111111112,0,0,0.007595486111111112,9.228515625000002,0)" xlink:href="#o"/><use transform="matrix(0.007595486111111112,0,0,0.007595486111111112,14.309895833333336,0)" xlink:href="#p"/><use transform="matrix(0.007595486111111112,0,0,0.007595486111111112,22.771267361111114,0)" xlink:href="#q"/><use transform="matrix(0.007595486111111112,0,0,0.007595486111111112,28.41471354166667,0)" xlink:href="#o"/></g><path fill="#fff" d="M33 0v-248h34V0H33" id="r"/><path fill="#fff" d="M117-194c89-4 53 116 60 194h-32v-121c0-31-8-49-39-48C34-167 62-67 57 0H25l-1-190h30c1 10-1 24 2 32 11-22 29-35 61-36" id="s"/><path fill="#fff" d="M115-194c55 1 70 41 70 98S169 2 115 4C84 4 66-9 55-30l1 105H24l-1-265h31l2 30c10-21 28-34 59-34zm-8 174c40 0 45-34 45-75s-6-73-45-74c-42 0-51 32-51 76 0 43 10 73 51 73" id="t"/><path fill="#fff" d="M84 4C-5 8 30-112 23-190h32v120c0 31 7 50 39 49 72-2 45-101 50-169h31l1 190h-30c-1-10 1-25-2-33-11 22-28 36-60 37" id="u"/><path fill="#fff" d="M59-47c-2 24 18 29 38 22v24C64 9 27 4 27-40v-127H5v-23h24l9-43h21v43h35v23H59v120" id="v"/><g id="b"><use transform="matrix(0.04320987654320988,0,0,0.04320987654320988,0,0)" xlink:href="#r"/><use transform="matrix(0.04320987654320988,0,0,0.04320987654320988,4.320987654320988,0)" xlink:href="#s"/><use transform="matrix(0.04320987654320988,0,0,0.04320987654320988,12.962962962962964,0)" xlink:href="#t"/><use transform="matrix(0.04320987654320988,0,0,0.04320987654320988,21.604938271604944,0)" xlink:href="#u"/><use transform="matrix(0.04320987654320988,0,0,0.04320987654320988,30.24691358024692,0)" xlink:href="#v"/></g><path fill="#fff" d="M100-194c63 0 86 42 84 106H49c0 40 14 67 53 68 26 1 43-12 49-29l28 8c-11 28-37 45-77 45C44 4 14-33 15-96c1-61 26-98 85-98zm52 81c6-60-76-77-97-28-3 7-6 17-6 28h103" id="w"/><path fill="#fff" d="M177-190C167-65 218 103 67 71c-23-6-38-20-44-43l32-5c15 47 100 32 89-28v-30C133-14 115 1 83 1 29 1 15-40 15-95c0-56 16-97 71-98 29-1 48 16 59 35 1-10 0-23 2-32h30zM94-22c36 0 50-32 50-73 0-42-14-75-50-75-39 0-46 34-46 75s6 73 46 73" id="x"/><path fill="#fff" d="M114-163C36-179 61-72 57 0H25l-1-190h30c1 12-1 29 2 39 6-27 23-49 58-41v29" id="y"/><g id="c"><use transform="matrix(0.04320987654320988,0,0,0.04320987654320988,0,0)" xlink:href="#r"/><use transform="matrix(0.04320987654320988,0,0,0.04320987654320988,4.320987654320988,0)" xlink:href="#s"/><use transform="matrix(0.04320987654320988,0,0,0.04320987654320988,12.962962962962964,0)" xlink:href="#v"/><use transform="matrix(0.04320987654320988,0,0,0.04320987654320988,17.283950617283953,0)" xlink:href="#w"/><use transform="matrix(0.04320987654320988,0,0,0.04320987654320988,25.925925925925927,0)" xlink:href="#x"/><use transform="matrix(0.04320987654320988,0,0,0.04320987654320988,34.567901234567906,0)" xlink:href="#w"/><use transform="matrix(0.04320987654320988,0,0,0.04320987654320988,43.20987654320988,0)" xlink:href="#y"/></g><path fill="#fff" d="M135-143c-3-34-86-38-87 0 15 53 115 12 119 90S17 21 10-45l28-5c4 36 97 45 98 0-10-56-113-15-118-90-4-57 82-63 122-42 12 7 21 19 24 35" id="z"/><g id="d"><use transform="matrix(0.04320987654320988,0,0,0.04320987654320988,0,0)" xlink:href="#r"/><use transform="matrix(0.04320987654320988,0,0,0.04320987654320988,4.320987654320988,0)" xlink:href="#z"/></g><path fill="#fff" d="M210-169c-67 3-38 105-44 169h-31v-121c0-29-5-50-35-48C34-165 62-65 56 0H25l-1-190h30c1 10-1 24 2 32 10-44 99-50 107 0 11-21 27-35 58-36 85-2 47 119 55 194h-31v-121c0-29-5-49-35-48" id="A"/><path fill="#fff" d="M115-194c53 0 69 39 70 98 0 66-23 100-70 100C84 3 66-7 56-30L54 0H23l1-261h32v101c10-23 28-34 59-34zm-8 174c40 0 45-34 45-75 0-40-5-75-45-74-42 0-51 32-51 76 0 43 10 73 51 73" id="B"/><g id="e"><use transform="matrix(0.04320987654320988,0,0,0.04320987654320988,0,0)" xlink:href="#s"/><use transform="matrix(0.04320987654320988,0,0,0.04320987654320988,8.641975308641976,0)" xlink:href="#u"/><use transform="matrix(0.04320987654320988,0,0,0.04320987654320988,17.283950617283953,0)" xlink:href="#A"/><use transform="matrix(0.04320987654320988,0,0,0.04320987654320988,30.203703703703713,0)" xlink:href="#B"/><use transform="matrix(0.04320987654320988,0,0,0.04320987654320988,38.845679012345684,0)" xlink:href="#w"/><use transform="matrix(0.04320987654320988,0,0,0.04320987654320988,47.48765432098766,0)" xlink:href="#y"/></g><path fill="#fff" d="M18-27v-27l151-64-151-65v-27l175 74v36" id="C"/><use transform="matrix(0.04320987654320988,0,0,0.04320987654320988,0,0)" xlink:href="#C" id="f"/><path fill="#fff" d="M101-251c68 0 85 55 85 127S166 4 100 4C33 4 14-52 14-124c0-73 17-127 87-127zm-1 229c47 0 54-49 54-102s-4-102-53-102c-51 0-55 48-55 102 0 53 5 102 54 102" id="D"/><path fill="#fff" d="M103-251c84 0 111 97 45 133-19 10-37 24-39 52H78c0-63 77-55 77-114 0-30-21-42-52-43-32 0-53 17-56 46l-32-2c7-45 34-72 88-72zM77 0v-35h34V0H77" id="E"/><g id="g"><use transform="matrix(0.04320987654320988,0,0,0.04320987654320988,0,0)" xlink:href="#D"/><use transform="matrix(0.04320987654320988,0,0,0.04320987654320988,8.641975308641976,0)" xlink:href="#E"/></g><path fill="#fff" d="M30-248c87 1 191-15 191 75 0 78-77 80-158 76V0H30v-248zm33 125c57 0 124 11 124-50 0-59-68-47-124-48v98" id="F"/><path fill="#fff" d="M24-231v-30h32v30H24zM24 0v-190h32V0H24" id="G"/><g id="h"><use transform="matrix(0.04320987654320988,0,0,0.04320987654320988,0,0)" xlink:href="#F"/><use transform="matrix(0.04320987654320988,0,0,0.04320987654320988,10.370370370370372,0)" xlink:href="#y"/><use transform="matrix(0.04320987654320988,0,0,0.04320987654320988,15.512345679012347,0)" xlink:href="#G"/><use transform="matrix(0.04320987654320988,0,0,0.04320987654320988,18.92592592592593,0)" xlink:href="#s"/><use transform="matrix(0.04320987654320988,0,0,0.04320987654320988,27.567901234567906,0)" xlink:href="#v"/></g><path fill="#fff" d="M109-170H84l-4-78h32zm-65 0H19l-4-78h33" id="H"/><path fill="#fff" d="M100-194c62-1 85 37 85 99 1 63-27 99-86 99S16-35 15-95c0-66 28-99 85-99zM99-20c44 1 53-31 53-75 0-43-8-75-51-75s-53 32-53 75 10 74 51 75" id="I"/><path fill="#fff" d="M108 0H70L1-190h34L89-25l56-165h34" id="J"/><g id="i"><use transform="matrix(0.04320987654320988,0,0,0.04320987654320988,0,0)" xlink:href="#H"/><use transform="matrix(0.04320987654320988,0,0,0.04320987654320988,5.487654320987655,0)" xlink:href="#F"/><use transform="matrix(0.04320987654320988,0,0,0.04320987654320988,15.858024691358027,0)" xlink:href="#I"/><use transform="matrix(0.04320987654320988,0,0,0.04320987654320988,24.500000000000004,0)" xlink:href="#z"/><use transform="matrix(0.04320987654320988,0,0,0.04320987654320988,32.277777777777786,0)" xlink:href="#G"/><use transform="matrix(0.04320987654320988,0,0,0.04320987654320988,35.69135802469137,0)" xlink:href="#v"/><use transform="matrix(0.04320987654320988,0,0,0.04320987654320988,40.012345679012356,0)" xlink:href="#G"/><use transform="matrix(0.04320987654320988,0,0,0.04320987654320988,43.42592592592594,0)" xlink:href="#J"/><use transform="matrix(0.04320987654320988,0,0,0.04320987654320988,51.20370370370372,0)" xlink:href="#w"/><use transform="matrix(0.04320987654320988,0,0,0.04320987654320988,59.8456790123457,0)" xlink:href="#H"/></g><path fill="#fff" d="M190 0L58-211 59 0H30v-248h39L202-35l-2-213h31V0h-41" id="K"/><path fill="#fff" d="M141-36C126-15 110 5 73 4 37 3 15-17 15-53c-1-64 63-63 125-63 3-35-9-54-41-54-24 1-41 7-42 31l-33-3c5-37 33-52 76-52 45 0 72 20 72 64v82c-1 20 7 32 28 27v20c-31 9-61-2-59-35zM48-53c0 20 12 33 32 33 41-3 63-29 60-74-43 2-92-5-92 41" id="L"/><g id="j"><use transform="matrix(0.04320987654320988,0,0,0.04320987654320988,0,0)" xlink:href="#H"/><use transform="matrix(0.04320987654320988,0,0,0.04320987654320988,5.487654320987655,0)" xlink:href="#K"/><use transform="matrix(0.04320987654320988,0,0,0.04320987654320988,16.679012345679013,0)" xlink:href="#w"/><use transform="matrix(0.04320987654320988,0,0,0.04320987654320988,25.320987654320984,0)" xlink:href="#x"/><use transform="matrix(0.04320987654320988,0,0,0.04320987654320988,33.96296296296296,0)" xlink:href="#L"/><use transform="matrix(0.04320987654320988,0,0,0.04320987654320988,42.60493827160494,0)" xlink:href="#v"/><use transform="matrix(0.04320987654320988,0,0,0.04320987654320988,46.925925925925924,0)" xlink:href="#G"/><use transform="matrix(0.04320987654320988,0,0,0.04320987654320988,50.3395061728395,0)" xlink:href="#J"/><use transform="matrix(0.04320987654320988,0,0,0.04320987654320988,58.11728395061728,0)" xlink:href="#w"/><use transform="matrix(0.04320987654320988,0,0,0.04320987654320988,66.75925925925927,0)" xlink:href="#H"/></g><path fill="#fff" d="M992-673H361v516h733V0H169v-1456h915v158H361v468h631v157" id="M"/><path fill="#fff" d="M589-945c-131 0-219 81-264 174V0H140v-1082h175l6 136c83-104 191-156 324-156 229 0 346 129 346 387V0H806v-716c-2-153-65-229-217-229" id="N"/><path fill="#fff" d="M520 20C244 20 95-247 95-550c0-298 151-550 427-552 127 0 227 43 301 130v-564h185V0H838l-9-116C755-25 652 20 520 20zm48-965c-210 0-288 177-288 416 0 218 87 392 286 392 117 0 203-53 257-158v-497c-55-102-140-153-255-153" id="O"/><g id="k"><use transform="matrix(0.007595486111111112,0,0,0.007595486111111112,0,0)" xlink:href="#M"/><use transform="matrix(0.007595486111111112,0,0,0.007595486111111112,8.841145833333334,0)" xlink:href="#N"/><use transform="matrix(0.007595486111111112,0,0,0.007595486111111112,17.424045138888893,0)" xlink:href="#O"/></g><path fill="#fff" d="M137-103V0h-34v-103L8-248h37l75 118 75-118h37" id="P"/><g id="l"><use transform="matrix(0.04320987654320988,0,0,0.04320987654320988,0,0)" xlink:href="#P"/><use transform="matrix(0.04320987654320988,0,0,0.04320987654320988,8.944444444444446,0)" xlink:href="#w"/><use transform="matrix(0.04320987654320988,0,0,0.04320987654320988,17.586419753086425,0)" xlink:href="#z"/></g><g id="m"><use transform="matrix(0.04320987654320988,0,0,0.04320987654320988,0,0)" xlink:href="#K"/><use transform="matrix(0.04320987654320988,0,0,0.04320987654320988,11.19135802469136,0)" xlink:href="#I"/></g></defs></g></svg>